<?xml version="1.0" encoding="utf-8"?><svg width="59" height="56" fill="none" xmlns="http://www.w3.org/2000/svg" viewBox="0 0 59 56"><path d="M28.492 22.122a3.964 3.964 0 00-1.194-2.765 4.002 4.002 0 00-2.625-1.152h-7.041a1.105 1.105 0 01-.955 0 1.338 1.338 0 010-.922v-4.725a1.008 1.008 0 010-.921 1.48 1.48 0 01.954 0h7.042c.362.047.699.208.957.458.26.25.426.574.475.924a1.117 1.117 0 00.343.937 1.232 1.232 0 00.97.331c.348 0 .682-.134.928-.371.246-.238.384-.56.384-.897a3.964 3.964 0 00-1.193-2.765 3.754 3.754 0 00-1.224-1.187 3.91 3.91 0 00-1.64-.541h-2.268V7.488c0-.181-.037-.36-.109-.529a1.38 1.38 0 00-.31-.448 1.436 1.436 0 00-.465-.3 1.476 1.476 0 00-.548-.105c-.183-.001-.364.035-.531.106-.168.07-.319.175-.442.305a1.227 1.227 0 00-.34.972v1.037h-2.029a3.934 3.934 0 00-1.573.335 3.811 3.811 0 00-1.29.932c-.41.344-.74.769-.966 1.246a3.58 3.58 0 00-.348 1.52v4.263c-.014.527.097 1.05.325 1.53.228.479.566.901.988 1.235a4.602 4.602 0 002.745 1.268h7.16c.308-.116.648-.116.955 0 .11.298.11.623 0 .921v4.725c.11.298.11.623 0 .922a1.357 1.357 0 01-.954 0h-7.041a1.356 1.356 0 01-.955 0 1.338 1.338 0 010-.922 1.227 1.227 0 00-.34-.972 1.313 1.313 0 00-.441-.305 1.354 1.354 0 00-.532-.106c-.188 0-.374.036-.548.105-.174.07-.332.172-.465.3a1.38 1.38 0 00-.31.449 1.342 1.342 0 00-.11.529c.003.524.122 1.042.348 1.52a3.7 3.7 0 00.966 1.245 4.253 4.253 0 002.864 1.153h2.029v1.152c0 .336.138.658.384.896s.58.371.928.371c.183.016.366-.005.54-.061.173-.056.332-.147.467-.267a1.27 1.27 0 00.316-.426 1.23 1.23 0 00.11-.513v-1.152h1.79a4.132 4.132 0 002.869-1.148 3.85 3.85 0 001.188-2.77v-4.379h-.238zm18.02-3.572a17.432 17.432 0 00-5.49-1.383 19.13 19.13 0 00-4.328-9.9c-2.376-2.842-5.532-4.982-9.108-6.176A20.856 20.856 0 0016.474.52a20.377 20.377 0 00-9.736 5.207c-2.675 2.583-4.544 5.84-5.393 9.4a18.834 18.834 0 00.592 10.73c1.236 3.453 3.453 6.5 6.397 8.794a20.55 20.55 0 0010.253 4.179 18.976 18.976 0 003.78 9.388A19.942 19.942 0 0030.52 54.5a21.536 21.536 0 007.758 1.498c5.392.03 10.577-2 14.423-5.649s6.04-8.619 6.103-13.825a19.097 19.097 0 00-3.207-10.695c-2.119-3.19-5.15-5.72-8.727-7.28h-.358zm-41.173.922a14.834 14.834 0 012.605-8.493c1.722-2.519 4.181-4.486 7.065-5.652a16.276 16.276 0 019.127-.893 15.936 15.936 0 018.095 4.168 15.054 15.054 0 014.317 7.816 14.725 14.725 0 01-.925 8.813c-1.207 2.784-3.245 5.158-5.853 6.82a16.162 16.162 0 01-8.797 2.516c-4.146 0-8.123-1.59-11.055-4.422-2.932-2.83-4.579-6.67-4.579-10.673zm44.395 27.654c-2.945 2.847-6.931 4.461-11.098 4.494a17.847 17.847 0 01-6.087-1.152 15.822 15.822 0 01-6.236-4.6 15.076 15.076 0 01-3.192-6.923 22.856 22.856 0 008.712-2.88v.576a4.006 4.006 0 002.745 1.152H41.5c.307-.116.648-.116.955 0 .09.34.09.697 0 1.037v4.263c-.05.35-.216.675-.475.925-.258.25-.595.41-.958.458h-5.847a1.48 1.48 0 01-.955 0 1.226 1.226 0 010-.922 1.476 1.476 0 00-.45-.948 1.576 1.576 0 00-.982-.434 1.452 1.452 0 00-.936.443 1.357 1.357 0 00-.377.94 3.964 3.964 0 001.194 2.765c.356.396.796.713 1.29.932.494.218 1.03.333 1.574.335h2.029v1.037c0 .182.037.362.109.53.072.167.177.32.31.448s.29.23.465.3c.173.07.36.105.548.105.182 0 .364-.035.531-.106.168-.071.318-.175.442-.305a1.227 1.227 0 00.34-.972v-1.152h2.028a3.852 3.852 0 002.506-1.383c.395-.35.706-.778.912-1.256.206-.477.302-.992.282-1.51v-4.147a3.685 3.685 0 00-.279-1.564 3.796 3.796 0 00-.915-1.317 4.006 4.006 0 00-2.745-1.152h-6.921a1.346 1.346 0 01-.545-.184 1.293 1.293 0 01-.41-.392 19.01 19.01 0 005.132-6.338h2.864c.362.047.699.208.958.458.258.25.425.575.474.925 0 .336.138.659.384.896.247.238.58.371.929.371.348 0 .682-.133.928-.37.246-.239.384-.56.384-.897a3.85 3.85 0 00-1.188-2.77 4.132 4.132 0 00-2.87-1.148h-2.028c.488-1.301.808-2.656.955-4.033a9.8 9.8 0 013.58 1.037 15.591 15.591 0 015.988 4.374 14.87 14.87 0 013.185 6.565 14.594 14.594 0 01-.353 7.242 14.993 14.993 0 01-3.808 6.247z" fill="#C0965C"/></svg>