<?xml version="1.0" encoding="utf-8"?><svg width="57" height="54" fill="none" xmlns="http://www.w3.org/2000/svg" viewBox="0 0 57 54"><path d="M22.275 43.458a1.213 1.213 0 00-.958.333c-.128.121-.23.269-.3.433-.07.165-.106.342-.105.522v2.108c0 .373.144.73.4.994.255.264.602.412.963.412a1.218 1.218 0 00.926-.418 1.328 1.328 0 00.323-.988v-2.108c0-.342-.131-.67-.365-.911a1.23 1.23 0 00-.884-.377zm3.521 0c-.331 0-.649.135-.883.377a1.31 1.31 0 00-.366.911v2.108a1.326 1.326 0 00.323.988 1.22 1.22 0 00.926.418c.362 0 .709-.148.964-.412.256-.263.4-.62.4-.994v-2.108a1.323 1.323 0 00-.406-.955 1.213 1.213 0 00-.958-.333zm-7.156 0a1.218 1.218 0 00-.883.377 1.323 1.323 0 00-.366.911v2.108c0 .342.131.67.366.912.234.241.552.377.883.377.332 0 .65-.136.884-.377a1.31 1.31 0 00.366-.912v-2.108c0-.342-.132-.67-.366-.911a1.23 1.23 0 00-.884-.377zm31.692 0a1.34 1.34 0 00-.926.369 1.422 1.422 0 00-.437.919v2.108c0 .373.143.73.399.994s.602.412.964.412a1.218 1.218 0 00.926-.418 1.326 1.326 0 00.323-.988v-2.108a1.323 1.323 0 00-.366-.911 1.217 1.217 0 00-.884-.377zm-7.156 0a1.213 1.213 0 00-.958.333c-.129.121-.23.269-.3.433-.07.165-.106.342-.105.522v2.108c0 .373.143.73.399.994.255.264.602.412.964.412a1.218 1.218 0 00.926-.418 1.328 1.328 0 00.323-.988v-2.108c0-.342-.131-.67-.366-.911a1.23 1.23 0 00-.883-.377zm3.521 0h-.454c-.332 0-.65.135-.884.377a1.31 1.31 0 00-.366.911v2.108c0 .342.132.67.366.912.234.241.552.377.884.377.331 0 .649-.136.883-.377.235-.242.366-.57.366-.912v-2.108c0-.342-.131-.67-.366-.911a1.23 1.23 0 00-.883-.377h.454zm8.974-23.428a4.22 4.22 0 00-1.43-1.12 4.097 4.097 0 00-1.75-.403h-2.727L40.79 2.577a4.807 4.807 0 00-1.054-1.56A4.64 4.64 0 0038.178 0a3.984 3.984 0 00-3.294 0L3.078 19.444a4.462 4.462 0 00-1.44 1.213 4.625 4.625 0 00-.831 1.716 4.45 4.45 0 000 3.397l10.677 17.922v5.622a4.694 4.694 0 00.306 1.77c.214.563.535 1.076.944 1.51.375.457.846.821 1.377 1.064.531.244 1.109.36 1.69.342h36.69a3.98 3.98 0 001.74-.34 4.094 4.094 0 001.44-1.066 5.134 5.134 0 001.136-3.28V23.427a4.533 4.533 0 00-1.136-3.163v-.234zm-44.187 3.397v11.714L5.123 23.427 36.815 4.451l7.724 13.822H15.8a4.435 4.435 0 00-1.779.465 4.563 4.563 0 00-1.455 1.153 4.728 4.728 0 00-.895 1.653 4.825 4.825 0 00-.187 1.883zm41.12 25.887H15.8V23.427h36.69v25.887h.114zm-17.72-5.856c-.332 0-.65.135-.884.377a1.31 1.31 0 00-.366.911v2.108a1.325 1.325 0 00.155 1.234c.125.175.29.315.482.407.191.092.402.132.613.117.171-.054.331-.142.47-.26a1.4 1.4 0 00.338-.424 1.437 1.437 0 00.1-1.074v-2.108a1.317 1.317 0 00-.238-.806 1.25 1.25 0 00-.67-.482zm3.635 0c-.332 0-.65.135-.884.377a1.31 1.31 0 00-.366.911v2.108a1.326 1.326 0 00.323.988 1.218 1.218 0 00.926.418 1.37 1.37 0 00.682-.546c.164-.254.244-.555.227-.86v-2.108a1.422 1.422 0 00-.437-.92 1.34 1.34 0 00-.926-.368h.455zm-7.157 0a1.213 1.213 0 00-.958.333c-.128.121-.23.269-.3.433-.07.165-.105.342-.105.522v2.108c0 .373.144.73.4.994.255.264.602.412.963.412.27-.104.495-.3.64-.557.145-.256.2-.556.155-.849v-2.108c0-.342-.131-.67-.365-.911a1.231 1.231 0 00-.884-.377h.454zm-4.43-13.705H18.64a1.218 1.218 0 00-.883.377 1.323 1.323 0 00-.366.911v8.55c0 .343.131.67.366.912.234.242.552.377.883.377h8.292a1.213 1.213 0 00.958-.333 1.323 1.323 0 00.405-.955V31.04a1.323 1.323 0 00-.405-.955 1.213 1.213 0 00-.958-.333zm-1.25 8.55h-5.679v-5.856h5.68v5.856z" fill="#C0965C"/></svg>