<?xml version="1.0" encoding="utf-8"?><svg width="59" height="58" fill="none" xmlns="http://www.w3.org/2000/svg" viewBox="0 0 59 58"><path d="M50.218 5.284l-8.588 8.57a2.118 2.118 0 01-1.882.588l-28.589-2.7-2 1.878 20.353 8.218c.373.081.705.289.942.587a2.113 2.113 0 010 3.17l-9.412 9.393a2.122 2.122 0 01-1.883 0l-9.882-1.526-2.47 2.583 10.235 5.048a1.649 1.649 0 011.059.94l4.706 9.98 2.47-2.466-.941-9.745a2.11 2.11 0 010-1.996l9.412-9.51c.272-.054.551-.054.823 0a2.12 2.12 0 012.824 1.291l8.353 20.43 2.117-2.349-3.53-28.53a1.992 1.992 0 01.707-1.879l8.588-8.57a2.463 2.463 0 00-1.726-4.025 2.474 2.474 0 00-1.686.502v.118zm-3.176-3.17a6.87 6.87 0 019.706-.06 6.843 6.843 0 01.059 9.687l-7.883 7.867 3.412 28.647a2.343 2.343 0 01-.706 1.761l-5.059 5.049a2.116 2.116 0 01-2.46.528 2.117 2.117 0 01-.716-.528 2.931 2.931 0 010-.822l-8.236-20.312-6.235 6.223 1.412 9.745a2.11 2.11 0 01-.706 1.996l-5.294 5.4a2.119 2.119 0 01-3.177 0v-.704l-5.647-11.74-13.529-6.223a2.236 2.236 0 01-1.454-1.405 2.226 2.226 0 01.278-2c.232-.055.473-.055.705 0l5.412-5.4a2.357 2.357 0 011.882 0l9.883 1.408 6.235-6.223-20.47-9.04a2.236 2.236 0 01-1.46-2.062c-.004-.3.052-.596.165-.873v-.705l5.53-5.166a2.593 2.593 0 012 0L39.277 9.98l7.765-7.866z" fill="#C0965C"/></svg>