<?xml version="1.0" encoding="utf-8"?><svg width="59" height="54" fill="none" xmlns="http://www.w3.org/2000/svg" viewBox="0 0 59 54"><path d="M28.356 52.296L6.283 30.228A18.311 18.311 0 011 22.246a15.96 15.96 0 01.822-9.508 19.367 19.367 0 014.461-6.573 17.025 17.025 0 017.28-4.343 15.267 15.267 0 019.158 0c2.654.75 5.13 2.028 7.279 3.756a19.139 19.139 0 017.162-3.991c3.02-.94 6.255-.94 9.275 0A17.377 17.377 0 0153.6 5.93a18.31 18.31 0 014.58 7.043c.877 2.949.877 6.09 0 9.038a18.31 18.31 0 01-4.815 7.982L31.526 52.296a2.114 2.114 0 01-3.17 0zm4.227-43.314l-7.045 7.043a1.173 1.173 0 01-1.878 0 1.174 1.174 0 010-1.878l4.461-4.46a15.968 15.968 0 00-6.457-3.874 11.743 11.743 0 00-6.81 0 12.915 12.915 0 00-5.4 3.521 14.086 14.086 0 00-3.405 5.282 11.736 11.736 0 000 6.456 13.38 13.38 0 003.64 5.987L30 47.952l20.43-20.776a14.437 14.437 0 003.639-5.986c.603-2.11.603-4.347 0-6.456a14.085 14.085 0 00-3.523-5.4 12.915 12.915 0 00-5.4-3.287 13.505 13.505 0 00-6.81 0 15.499 15.499 0 00-5.753 3.17v-.235z" fill="#C0965C"/></svg>