<?xml version="1.0" encoding="utf-8"?><svg width="37" height="43" fill="none" xmlns="http://www.w3.org/2000/svg" viewBox="0 0 37 43"><path d="M17.198 22.153L1.328 2.935a1.612 1.612 0 01.62-2.728 1.984 1.984 0 011.115 0h31.121a1.736 1.736 0 011.736 1.736 1.86 1.86 0 010 1.116L19.926 22.153v16.863h8.679a1.735 1.735 0 110 3.471H8.519a1.612 1.612 0 01-1.612-1.736 1.736 1.736 0 011.612-1.735h9.05V22.4l-.371-.248zM8.767 6.283H28.48l2.108-2.728H6.535l2.232 2.727zm17.978 1.983H10.378l8.184 10.167 8.183-10.167zm-6.2 1.488a1.984 1.984 0 00-1.983 1.984 1.984 1.984 0 001.984 1.86 1.859 1.859 0 001.86-1.86 1.984 1.984 0 00-1.86-1.984z" fill="#C0965C"/></svg>