<?xml version="1.0" encoding="utf-8"?><svg width="45" height="49" fill="none" xmlns="http://www.w3.org/2000/svg" viewBox="0 0 45 49"><path d="M44.576 11.55v1.115a7.564 7.564 0 010 1.86V41.68a6.696 6.696 0 01-1.86 4.588 6.324 6.324 0 01-4.463 1.86H7.255a6.447 6.447 0 01-4.587-1.86 6.696 6.696 0 01-1.86-4.588V14.525a6.323 6.323 0 016.447-6.447H22.63a11.655 11.655 0 012.976-4.588A11.53 11.53 0 0133.293.266a11.283 11.283 0 017.935 3.224 12.4 12.4 0 013.348 8.06zM33.293 6.093a5.455 5.455 0 013.844 9.3 4.96 4.96 0 01-3.844 1.611 4.96 4.96 0 01-3.844-1.612 5.457 5.457 0 013.844-9.3zm2.48 3.1a3.347 3.347 0 00-4.96 0 2.974 2.974 0 00-.992 2.355 3.472 3.472 0 006.944 0 2.976 2.976 0 00-.992-2.355zM22.01 11.549H7.255a2.603 2.603 0 00-2.108 1.116 2.604 2.604 0 00-.868 2.108V41.68a2.604 2.604 0 00.868 2.108 2.605 2.605 0 002.108.868h31.618a2.478 2.478 0 001.983-.868 2.603 2.603 0 00.868-2.108V18.865a11.655 11.655 0 01-3.72 3.1l-3.471 4.091a.87.87 0 01-1.364 0l-3.348-4.091a12.399 12.399 0 01-5.083-4.092 11.282 11.282 0 01-2.728-6.324zm17.73-6.571a8.927 8.927 0 00-12.399 0 9.051 9.051 0 00-2.727 6.572 9.547 9.547 0 00.992 5.207 10.54 10.54 0 004.34 3.348l2.851 3.471 2.852-3.471a10.54 10.54 0 004.34-3.348 9.547 9.547 0 002.48-5.208 9.052 9.052 0 00-2.729-6.571zM26.35 25.064a1.116 1.116 0 011.487 0 .992.992 0 010 1.364l-2.231 2.232 5.827 5.952 6.572-6.572a1.052 1.052 0 011.487 1.488l-6.57 6.447 2.107 2.232a.868.868 0 010 1.488.992.992 0 01-1.364 0l-2.852-2.976-6.571-6.447-11.78 11.779a.992.992 0 01-1.363 0 1.116 1.116 0 010-1.488l12.399-12.399-6.2-4.34-7.935 7.936a1.116 1.116 0 01-1.488 0 1.116 1.116 0 010-1.488l7.935-7.811-4.96-5.084a.87.87 0 010-1.364.867.867 0 011.365 0l5.703 5.58 5.456 5.58 2.976-2.109z" fill="#C0965C"/></svg>