<?xml version="1.0" encoding="utf-8"?><svg width="45" height="45" fill="none" xmlns="http://www.w3.org/2000/svg" viewBox="0 0 45 45"><path d="M22.92 0a22.07 22.07 0 0115.623 6.447 22.07 22.07 0 016.448 15.623 20.705 20.705 0 01-1.116 6.82 18.968 18.968 0 01-2.852 5.703v7.935a1.736 1.736 0 01-1.736 1.736H22.921a21.45 21.45 0 01-15.623-6.447 22.194 22.194 0 010-31.37A22.442 22.442 0 0122.921 0zM11.887 17.73h22.07a.992.992 0 00.992-.991.868.868 0 00-.992-.992h-22.07a.868.868 0 00-.992.992.992.992 0 00.992.991zm0 5.456h22.07a.993.993 0 00.992-.992.868.868 0 00-.992-.992h-22.07a.867.867 0 00-.992.992.993.993 0 00.992.992zm0 5.456h22.07a.992.992 0 00.992-.992.868.868 0 00-.992-.992h-22.07a.867.867 0 00-.992.992.992.992 0 00.992.992zM36.684 8.927a19.093 19.093 0 00-13.763-5.58 18.846 18.846 0 00-13.267 5.58 18.723 18.723 0 00-5.456 13.267 18.97 18.97 0 005.456 13.267 18.722 18.722 0 0013.267 5.456h15.002V34.22a1.364 1.364 0 010-.992 20.83 20.83 0 002.728-5.207c.6-1.884.892-3.851.868-5.828a18.846 18.846 0 00-5.207-13.267h.372z" fill="#C0965C"/></svg>