<?xml version="1.0" encoding="utf-8"?><svg viewBox="0 0 200 200" xmlns="http://www.w3.org/2000/svg" xmlns:xlink="http://www.w3.org/1999/xlink"><style>:root>svg{display:none}:root>svg:target{display:block}</style><svg fill="none" viewBox="0 0 25 19" id="icon-burger" xmlns="http://www.w3.org/2000/svg"><path d="M0 0h25v3H0V0zM0 8h20v3H0V8zM25 16H0v3h25v-3z" fill="#C0965C"/></svg><svg fill="none" viewBox="0 0 23 17" id="icon-checkbox" xmlns="http://www.w3.org/2000/svg"><path d="M2 6.5L9.5 14l12-12" stroke="#fff" stroke-width="3"/></svg><svg fill="none" viewBox="0 0 21 20" id="icon-close" xmlns="http://www.w3.org/2000/svg"><path fill="#6C6C6C" d="M2.722 0L20.4 17.678l-2.122 2.121L.601 2.122z"/><path fill="#6C6C6C" d="M20.4 2.121L2.722 19.8.601 17.678 18.279 0z"/></svg><svg fill="none" viewBox="0 0 21 20" id="icon-close-nav" xmlns="http://www.w3.org/2000/svg"><path fill="#C0965C" d="M2.722 0L20.4 17.678l-2.122 2.121L.601 2.121z"/><path fill="#C0965C" d="M20.4 2.122L2.722 19.799.601 17.68 18.278 0z"/></svg><svg fill="none" viewBox="0 0 19 13" id="icon-dropdown" xmlns="http://www.w3.org/2000/svg"><path d="M2 2l7.5 8L17 2" stroke="#BBB" stroke-width="3"/></svg><svg fill="none" viewBox="0 0 20 20" id="icon-error" xmlns="http://www.w3.org/2000/svg"><path d="M2 18l8-8m8-8l-8 8m0 0l8 8m-8-8L2 2" stroke="#CC301B" stroke-width="3"/></svg><svg fill="none" viewBox="0 0 38 28" id="icon-form-success" xmlns="http://www.w3.org/2000/svg"><path d="M3 10.5L15.308 23 35 3" stroke="#89CC1B" stroke-width="6"/></svg><svg fill="none" viewBox="0 0 45 45" id="icon-personal-assistant-1" xmlns="http://www.w3.org/2000/svg"><path d="M22.92 0a22.07 22.07 0 0115.623 6.447 22.07 22.07 0 016.448 15.623 20.705 20.705 0 01-1.116 6.82 18.968 18.968 0 01-2.852 5.703v7.935a1.736 1.736 0 01-1.736 1.736H22.921a21.45 21.45 0 01-15.623-6.447 22.194 22.194 0 010-31.37A22.442 22.442 0 0122.921 0zM11.887 17.73h22.07a.992.992 0 00.992-.991.868.868 0 00-.992-.992h-22.07a.868.868 0 00-.992.992.992.992 0 00.992.991zm0 5.456h22.07a.993.993 0 00.992-.992.868.868 0 00-.992-.992h-22.07a.867.867 0 00-.992.992.993.993 0 00.992.992zm0 5.456h22.07a.992.992 0 00.992-.992.868.868 0 00-.992-.992h-22.07a.867.867 0 00-.992.992.992.992 0 00.992.992zM36.684 8.927a19.093 19.093 0 00-13.763-5.58 18.846 18.846 0 00-13.267 5.58 18.723 18.723 0 00-5.456 13.267 18.97 18.97 0 005.456 13.267 18.722 18.722 0 0013.267 5.456h15.002V34.22a1.364 1.364 0 010-.992 20.83 20.83 0 002.728-5.207c.6-1.884.892-3.851.868-5.828a18.846 18.846 0 00-5.207-13.267h.372z" fill="#C0965C"/></svg><svg fill="none" viewBox="0 0 45 49" id="icon-personal-assistant-2" xmlns="http://www.w3.org/2000/svg"><path d="M44.576 11.55v1.115a7.564 7.564 0 010 1.86V41.68a6.696 6.696 0 01-1.86 4.588 6.324 6.324 0 01-4.463 1.86H7.255a6.447 6.447 0 01-4.587-1.86 6.696 6.696 0 01-1.86-4.588V14.525a6.323 6.323 0 016.447-6.447H22.63a11.655 11.655 0 012.976-4.588A11.53 11.53 0 0133.293.266a11.283 11.283 0 017.935 3.224 12.4 12.4 0 013.348 8.06zM33.293 6.093a5.455 5.455 0 013.844 9.3 4.96 4.96 0 01-3.844 1.611 4.96 4.96 0 01-3.844-1.612 5.457 5.457 0 013.844-9.3zm2.48 3.1a3.347 3.347 0 00-4.96 0 2.974 2.974 0 00-.992 2.355 3.472 3.472 0 006.944 0 2.976 2.976 0 00-.992-2.355zM22.01 11.549H7.255a2.603 2.603 0 00-2.108 1.116 2.604 2.604 0 00-.868 2.108V41.68a2.604 2.604 0 00.868 2.108 2.605 2.605 0 002.108.868h31.618a2.478 2.478 0 001.983-.868 2.603 2.603 0 00.868-2.108V18.865a11.655 11.655 0 01-3.72 3.1l-3.471 4.091a.87.87 0 01-1.364 0l-3.348-4.091a12.399 12.399 0 01-5.083-4.092 11.282 11.282 0 01-2.728-6.324zm17.73-6.571a8.927 8.927 0 00-12.399 0 9.051 9.051 0 00-2.727 6.572 9.547 9.547 0 00.992 5.207 10.54 10.54 0 004.34 3.348l2.851 3.471 2.852-3.471a10.54 10.54 0 004.34-3.348 9.547 9.547 0 002.48-5.208 9.052 9.052 0 00-2.729-6.571zM26.35 25.064a1.116 1.116 0 011.487 0 .992.992 0 010 1.364l-2.231 2.232 5.827 5.952 6.572-6.572a1.052 1.052 0 011.487 1.488l-6.57 6.447 2.107 2.232a.868.868 0 010 1.488.992.992 0 01-1.364 0l-2.852-2.976-6.571-6.447-11.78 11.779a.992.992 0 01-1.363 0 1.116 1.116 0 010-1.488l12.399-12.399-6.2-4.34-7.935 7.936a1.116 1.116 0 01-1.488 0 1.116 1.116 0 010-1.488l7.935-7.811-4.96-5.084a.87.87 0 010-1.364.867.867 0 011.365 0l5.703 5.58 5.456 5.58 2.976-2.109z" fill="#C0965C"/></svg><svg fill="none" viewBox="0 0 46 35" id="icon-personal-assistant-3" xmlns="http://www.w3.org/2000/svg"><path d="M1.213 11.534L7.908.994A1.736 1.736 0 019.272.128h28.27a1.612 1.612 0 011.488.992l6.323 10.539a1.86 1.86 0 010 2.108L24.647 34.224a1.613 1.613 0 01-2.48 0L1.213 13.766a1.736 1.736 0 010-2.232zm3.967 0h8.432L9.768 4.466l-4.216 7.068H5.18zm31.866-7.068l-4.34 7.068h8.555l-4.215-7.068zm3.471 9.052H31.59l-5.58 14.01 14.507-14.01zm-20.21 14.01L15.1 13.518H6.296l14.011 14.01zM35.31 3.598h-9.3l4.96 7.068 4.34-7.068zm-14.383 0h-9.423l4.463 7.068 4.96-7.068zm-3.1 7.936h11.16l-5.58-7.936-5.58 7.936zm11.655 1.984H17.083l6.076 16.614 6.075-16.614h.248z" fill="#C0965C"/></svg><svg fill="none" viewBox="0 0 37 43" id="icon-personal-assistant-4" xmlns="http://www.w3.org/2000/svg"><path d="M17.198 22.153L1.328 2.935a1.612 1.612 0 01.62-2.728 1.984 1.984 0 011.115 0h31.121a1.736 1.736 0 011.736 1.736 1.86 1.86 0 010 1.116L19.926 22.153v16.863h8.679a1.735 1.735 0 110 3.471H8.519a1.612 1.612 0 01-1.612-1.736 1.736 1.736 0 011.612-1.735h9.05V22.4l-.371-.248zM8.767 6.283H28.48l2.108-2.728H6.535l2.232 2.727zm17.978 1.983H10.378l8.184 10.167 8.183-10.167zm-6.2 1.488a1.984 1.984 0 00-1.983 1.984 1.984 1.984 0 001.984 1.86 1.859 1.859 0 001.86-1.86 1.984 1.984 0 00-1.86-1.984z" fill="#C0965C"/></svg><svg fill="none" viewBox="0 0 23 17" id="icon-success" xmlns="http://www.w3.org/2000/svg"><path d="M1.5 6.5L9 14 21 2" stroke="#89CC1B" stroke-width="3"/></svg><svg fill="none" viewBox="0 0 57 54" id="icon-travel-1" xmlns="http://www.w3.org/2000/svg"><path d="M22.275 43.458a1.213 1.213 0 00-.958.333c-.128.121-.23.269-.3.433-.07.165-.106.342-.105.522v2.108c0 .373.144.73.4.994.255.264.602.412.963.412a1.218 1.218 0 00.926-.418 1.328 1.328 0 00.323-.988v-2.108c0-.342-.131-.67-.365-.911a1.23 1.23 0 00-.884-.377zm3.521 0c-.331 0-.649.135-.883.377a1.31 1.31 0 00-.366.911v2.108a1.326 1.326 0 00.323.988 1.22 1.22 0 00.926.418c.362 0 .709-.148.964-.412.256-.263.4-.62.4-.994v-2.108a1.323 1.323 0 00-.406-.955 1.213 1.213 0 00-.958-.333zm-7.156 0a1.218 1.218 0 00-.883.377 1.323 1.323 0 00-.366.911v2.108c0 .342.131.67.366.912.234.241.552.377.883.377.332 0 .65-.136.884-.377a1.31 1.31 0 00.366-.912v-2.108c0-.342-.132-.67-.366-.911a1.23 1.23 0 00-.884-.377zm31.692 0a1.34 1.34 0 00-.926.369 1.422 1.422 0 00-.437.919v2.108c0 .373.143.73.399.994s.602.412.964.412a1.218 1.218 0 00.926-.418 1.326 1.326 0 00.323-.988v-2.108a1.323 1.323 0 00-.366-.911 1.217 1.217 0 00-.884-.377zm-7.156 0a1.213 1.213 0 00-.958.333c-.129.121-.23.269-.3.433-.07.165-.106.342-.105.522v2.108c0 .373.143.73.399.994.255.264.602.412.964.412a1.218 1.218 0 00.926-.418 1.328 1.328 0 00.323-.988v-2.108c0-.342-.131-.67-.366-.911a1.23 1.23 0 00-.883-.377zm3.521 0h-.454c-.332 0-.65.135-.884.377a1.31 1.31 0 00-.366.911v2.108c0 .342.132.67.366.912.234.241.552.377.884.377.331 0 .649-.136.883-.377.235-.242.366-.57.366-.912v-2.108c0-.342-.131-.67-.366-.911a1.23 1.23 0 00-.883-.377h.454zm8.974-23.428a4.22 4.22 0 00-1.43-1.12 4.097 4.097 0 00-1.75-.403h-2.727L40.79 2.577a4.807 4.807 0 00-1.054-1.56A4.64 4.64 0 0038.178 0a3.984 3.984 0 00-3.294 0L3.078 19.444a4.462 4.462 0 00-1.44 1.213 4.625 4.625 0 00-.831 1.716 4.45 4.45 0 000 3.397l10.677 17.922v5.622a4.694 4.694 0 00.306 1.77c.214.563.535 1.076.944 1.51.375.457.846.821 1.377 1.064.531.244 1.109.36 1.69.342h36.69a3.98 3.98 0 001.74-.34 4.094 4.094 0 001.44-1.066 5.134 5.134 0 001.136-3.28V23.427a4.533 4.533 0 00-1.136-3.163v-.234zm-44.187 3.397v11.714L5.123 23.427 36.815 4.451l7.724 13.822H15.8a4.435 4.435 0 00-1.779.465 4.563 4.563 0 00-1.455 1.153 4.728 4.728 0 00-.895 1.653 4.825 4.825 0 00-.187 1.883zm41.12 25.887H15.8V23.427h36.69v25.887h.114zm-17.72-5.856c-.332 0-.65.135-.884.377a1.31 1.31 0 00-.366.911v2.108a1.325 1.325 0 00.155 1.234c.125.175.29.315.482.407.191.092.402.132.613.117.171-.054.331-.142.47-.26a1.4 1.4 0 00.338-.424 1.437 1.437 0 00.1-1.074v-2.108a1.317 1.317 0 00-.238-.806 1.25 1.25 0 00-.67-.482zm3.635 0c-.332 0-.65.135-.884.377a1.31 1.31 0 00-.366.911v2.108a1.326 1.326 0 00.323.988 1.218 1.218 0 00.926.418 1.37 1.37 0 00.682-.546c.164-.254.244-.555.227-.86v-2.108a1.422 1.422 0 00-.437-.92 1.34 1.34 0 00-.926-.368h.455zm-7.157 0a1.213 1.213 0 00-.958.333c-.128.121-.23.269-.3.433-.07.165-.105.342-.105.522v2.108c0 .373.144.73.4.994.255.264.602.412.963.412.27-.104.495-.3.64-.557.145-.256.2-.556.155-.849v-2.108c0-.342-.131-.67-.365-.911a1.231 1.231 0 00-.884-.377h.454zm-4.43-13.705H18.64a1.218 1.218 0 00-.883.377 1.323 1.323 0 00-.366.911v8.55c0 .343.131.67.366.912.234.242.552.377.883.377h8.292a1.213 1.213 0 00.958-.333 1.323 1.323 0 00.405-.955V31.04a1.323 1.323 0 00-.405-.955 1.213 1.213 0 00-.958-.333zm-1.25 8.55h-5.679v-5.856h5.68v5.856z" fill="#C0965C"/></svg><svg fill="none" viewBox="0 0 59 58" id="icon-travel-2" xmlns="http://www.w3.org/2000/svg"><path d="M50.218 5.284l-8.588 8.57a2.118 2.118 0 01-1.882.588l-28.589-2.7-2 1.878 20.353 8.218c.373.081.705.289.942.587a2.113 2.113 0 010 3.17l-9.412 9.393a2.122 2.122 0 01-1.883 0l-9.882-1.526-2.47 2.583 10.235 5.048a1.649 1.649 0 011.059.94l4.706 9.98 2.47-2.466-.941-9.745a2.11 2.11 0 010-1.996l9.412-9.51c.272-.054.551-.054.823 0a2.12 2.12 0 012.824 1.291l8.353 20.43 2.117-2.349-3.53-28.53a1.992 1.992 0 01.707-1.879l8.588-8.57a2.463 2.463 0 00-1.726-4.025 2.474 2.474 0 00-1.686.502v.118zm-3.176-3.17a6.87 6.87 0 019.706-.06 6.843 6.843 0 01.059 9.687l-7.883 7.867 3.412 28.647a2.343 2.343 0 01-.706 1.761l-5.059 5.049a2.116 2.116 0 01-2.46.528 2.117 2.117 0 01-.716-.528 2.931 2.931 0 010-.822l-8.236-20.312-6.235 6.223 1.412 9.745a2.11 2.11 0 01-.706 1.996l-5.294 5.4a2.119 2.119 0 01-3.177 0v-.704l-5.647-11.74-13.529-6.223a2.236 2.236 0 01-1.454-1.405 2.226 2.226 0 01.278-2c.232-.055.473-.055.705 0l5.412-5.4a2.357 2.357 0 011.882 0l9.883 1.408 6.235-6.223-20.47-9.04a2.236 2.236 0 01-1.46-2.062c-.004-.3.052-.596.165-.873v-.705l5.53-5.166a2.593 2.593 0 012 0L39.277 9.98l7.765-7.866z" fill="#C0965C"/></svg><svg fill="none" viewBox="0 0 59 54" id="icon-travel-3" xmlns="http://www.w3.org/2000/svg"><path d="M28.356 52.296L6.283 30.228A18.311 18.311 0 011 22.246a15.96 15.96 0 01.822-9.508 19.367 19.367 0 014.461-6.573 17.025 17.025 0 017.28-4.343 15.267 15.267 0 019.158 0c2.654.75 5.13 2.028 7.279 3.756a19.139 19.139 0 017.162-3.991c3.02-.94 6.255-.94 9.275 0A17.377 17.377 0 0153.6 5.93a18.31 18.31 0 014.58 7.043c.877 2.949.877 6.09 0 9.038a18.31 18.31 0 01-4.815 7.982L31.526 52.296a2.114 2.114 0 01-3.17 0zm4.227-43.314l-7.045 7.043a1.173 1.173 0 01-1.878 0 1.174 1.174 0 010-1.878l4.461-4.46a15.968 15.968 0 00-6.457-3.874 11.743 11.743 0 00-6.81 0 12.915 12.915 0 00-5.4 3.521 14.086 14.086 0 00-3.405 5.282 11.736 11.736 0 000 6.456 13.38 13.38 0 003.64 5.987L30 47.952l20.43-20.776a14.437 14.437 0 003.639-5.986c.603-2.11.603-4.347 0-6.456a14.085 14.085 0 00-3.523-5.4 12.915 12.915 0 00-5.4-3.287 13.505 13.505 0 00-6.81 0 15.499 15.499 0 00-5.753 3.17v-.235z" fill="#C0965C"/></svg><svg fill="none" viewBox="0 0 59 56" id="icon-travel-4" xmlns="http://www.w3.org/2000/svg"><path d="M28.492 22.122a3.964 3.964 0 00-1.194-2.765 4.002 4.002 0 00-2.625-1.152h-7.041a1.105 1.105 0 01-.955 0 1.338 1.338 0 010-.922v-4.725a1.008 1.008 0 010-.921 1.48 1.48 0 01.954 0h7.042c.362.047.699.208.957.458.26.25.426.574.475.924a1.117 1.117 0 00.343.937 1.232 1.232 0 00.97.331c.348 0 .682-.134.928-.371.246-.238.384-.56.384-.897a3.964 3.964 0 00-1.193-2.765 3.754 3.754 0 00-1.224-1.187 3.91 3.91 0 00-1.64-.541h-2.268V7.488c0-.181-.037-.36-.109-.529a1.38 1.38 0 00-.31-.448 1.436 1.436 0 00-.465-.3 1.476 1.476 0 00-.548-.105c-.183-.001-.364.035-.531.106-.168.07-.319.175-.442.305a1.227 1.227 0 00-.34.972v1.037h-2.029a3.934 3.934 0 00-1.573.335 3.811 3.811 0 00-1.29.932c-.41.344-.74.769-.966 1.246a3.58 3.58 0 00-.348 1.52v4.263c-.014.527.097 1.05.325 1.53.228.479.566.901.988 1.235a4.602 4.602 0 002.745 1.268h7.16c.308-.116.648-.116.955 0 .11.298.11.623 0 .921v4.725c.11.298.11.623 0 .922a1.357 1.357 0 01-.954 0h-7.041a1.356 1.356 0 01-.955 0 1.338 1.338 0 010-.922 1.227 1.227 0 00-.34-.972 1.313 1.313 0 00-.441-.305 1.354 1.354 0 00-.532-.106c-.188 0-.374.036-.548.105-.174.07-.332.172-.465.3a1.38 1.38 0 00-.31.449 1.342 1.342 0 00-.11.529c.003.524.122 1.042.348 1.52a3.7 3.7 0 00.966 1.245 4.253 4.253 0 002.864 1.153h2.029v1.152c0 .336.138.658.384.896s.58.371.928.371c.183.016.366-.005.54-.061.173-.056.332-.147.467-.267a1.27 1.27 0 00.316-.426 1.23 1.23 0 00.11-.513v-1.152h1.79a4.132 4.132 0 002.869-1.148 3.85 3.85 0 001.188-2.77v-4.379h-.238zm18.02-3.572a17.432 17.432 0 00-5.49-1.383 19.13 19.13 0 00-4.328-9.9c-2.376-2.842-5.532-4.982-9.108-6.176A20.856 20.856 0 0016.474.52a20.377 20.377 0 00-9.736 5.207c-2.675 2.583-4.544 5.84-5.393 9.4a18.834 18.834 0 00.592 10.73c1.236 3.453 3.453 6.5 6.397 8.794a20.55 20.55 0 0010.253 4.179 18.976 18.976 0 003.78 9.388A19.942 19.942 0 0030.52 54.5a21.536 21.536 0 007.758 1.498c5.392.03 10.577-2 14.423-5.649s6.04-8.619 6.103-13.825a19.097 19.097 0 00-3.207-10.695c-2.119-3.19-5.15-5.72-8.727-7.28h-.358zm-41.173.922a14.834 14.834 0 012.605-8.493c1.722-2.519 4.181-4.486 7.065-5.652a16.276 16.276 0 019.127-.893 15.936 15.936 0 018.095 4.168 15.054 15.054 0 014.317 7.816 14.725 14.725 0 01-.925 8.813c-1.207 2.784-3.245 5.158-5.853 6.82a16.162 16.162 0 01-8.797 2.516c-4.146 0-8.123-1.59-11.055-4.422-2.932-2.83-4.579-6.67-4.579-10.673zm44.395 27.654c-2.945 2.847-6.931 4.461-11.098 4.494a17.847 17.847 0 01-6.087-1.152 15.822 15.822 0 01-6.236-4.6 15.076 15.076 0 01-3.192-6.923 22.856 22.856 0 008.712-2.88v.576a4.006 4.006 0 002.745 1.152H41.5c.307-.116.648-.116.955 0 .09.34.09.697 0 1.037v4.263c-.05.35-.216.675-.475.925-.258.25-.595.41-.958.458h-5.847a1.48 1.48 0 01-.955 0 1.226 1.226 0 010-.922 1.476 1.476 0 00-.45-.948 1.576 1.576 0 00-.982-.434 1.452 1.452 0 00-.936.443 1.357 1.357 0 00-.377.94 3.964 3.964 0 001.194 2.765c.356.396.796.713 1.29.932.494.218 1.03.333 1.574.335h2.029v1.037c0 .182.037.362.109.53.072.167.177.32.31.448s.29.23.465.3c.173.07.36.105.548.105.182 0 .364-.035.531-.106.168-.071.318-.175.442-.305a1.227 1.227 0 00.34-.972v-1.152h2.028a3.852 3.852 0 002.506-1.383c.395-.35.706-.778.912-1.256.206-.477.302-.992.282-1.51v-4.147a3.685 3.685 0 00-.279-1.564 3.796 3.796 0 00-.915-1.317 4.006 4.006 0 00-2.745-1.152h-6.921a1.346 1.346 0 01-.545-.184 1.293 1.293 0 01-.41-.392 19.01 19.01 0 005.132-6.338h2.864c.362.047.699.208.958.458.258.25.425.575.474.925 0 .336.138.659.384.896.247.238.58.371.929.371.348 0 .682-.133.928-.37.246-.239.384-.56.384-.897a3.85 3.85 0 00-1.188-2.77 4.132 4.132 0 00-2.87-1.148h-2.028c.488-1.301.808-2.656.955-4.033a9.8 9.8 0 013.58 1.037 15.591 15.591 0 015.988 4.374 14.87 14.87 0 013.185 6.565 14.594 14.594 0 01-.353 7.242 14.993 14.993 0 01-3.808 6.247z" fill="#C0965C"/></svg><svg viewBox="0 0 100 100" preserveAspectRatio="xMidYMid" id="spinner" xmlns="http://www.w3.org/2000/svg"><rect x="47" y="24" rx="3" ry="6" width="6" height="12" fill="#c0965c"><animate attributeName="opacity" values="1;0" keyTimes="0;1" dur="1s" begin="-0.9166666666666666s" repeatCount="indefinite"/></rect><rect x="47" y="24" rx="3" ry="6" width="6" height="12" fill="#c0965c" transform="rotate(30 50 50)"><animate attributeName="opacity" values="1;0" keyTimes="0;1" dur="1s" begin="-0.8333333333333334s" repeatCount="indefinite"/></rect><rect x="47" y="24" rx="3" ry="6" width="6" height="12" fill="#c0965c" transform="rotate(60 50 50)"><animate attributeName="opacity" values="1;0" keyTimes="0;1" dur="1s" begin="-0.75s" repeatCount="indefinite"/></rect><rect x="47" y="24" rx="3" ry="6" width="6" height="12" fill="#c0965c" transform="rotate(90 50 50)"><animate attributeName="opacity" values="1;0" keyTimes="0;1" dur="1s" begin="-0.6666666666666666s" repeatCount="indefinite"/></rect><rect x="47" y="24" rx="3" ry="6" width="6" height="12" fill="#c0965c" transform="rotate(120 50 50)"><animate attributeName="opacity" values="1;0" keyTimes="0;1" dur="1s" begin="-0.5833333333333334s" repeatCount="indefinite"/></rect><rect x="47" y="24" rx="3" ry="6" width="6" height="12" fill="#c0965c" transform="rotate(150 50 50)"><animate attributeName="opacity" values="1;0" keyTimes="0;1" dur="1s" begin="-0.5s" repeatCount="indefinite"/></rect><rect x="47" y="24" rx="3" ry="6" width="6" height="12" fill="#c0965c" transform="rotate(180 50 50)"><animate attributeName="opacity" values="1;0" keyTimes="0;1" dur="1s" begin="-0.4166666666666667s" repeatCount="indefinite"/></rect><rect x="47" y="24" rx="3" ry="6" width="6" height="12" fill="#c0965c" transform="rotate(210 50 50)"><animate attributeName="opacity" values="1;0" keyTimes="0;1" dur="1s" begin="-0.3333333333333333s" repeatCount="indefinite"/></rect><rect x="47" y="24" rx="3" ry="6" width="6" height="12" fill="#c0965c" transform="rotate(240 50 50)"><animate attributeName="opacity" values="1;0" keyTimes="0;1" dur="1s" begin="-0.25s" repeatCount="indefinite"/></rect><rect x="47" y="24" rx="3" ry="6" width="6" height="12" fill="#c0965c" transform="rotate(270 50 50)"><animate attributeName="opacity" values="1;0" keyTimes="0;1" dur="1s" begin="-0.16666666666666666s" repeatCount="indefinite"/></rect><rect x="47" y="24" rx="3" ry="6" width="6" height="12" fill="#c0965c" transform="rotate(300 50 50)"><animate attributeName="opacity" values="1;0" keyTimes="0;1" dur="1s" begin="-0.08333333333333333s" repeatCount="indefinite"/></rect><rect x="47" y="24" rx="3" ry="6" width="6" height="12" fill="#c0965c" transform="rotate(330 50 50)"><animate attributeName="opacity" values="1;0" keyTimes="0;1" dur="1s" begin="0s" repeatCount="indefinite"/></rect></svg></svg>